<svg preserveAspectRatio="none" width="100%" height="100%" overflow="visible" style="display: block;" viewBox="0 0 55.0783 55.9894" fill="none" xmlns="http://www.w3.org/2000/svg">
<g id="Frame 179">
<path id="Vector 2" d="M30.2248 21.8532L29.2431 21.6627L28.8179 23.8543L30.7363 22.7125L30.2248 21.8532ZM42.0143 27.66L41.0212 27.5424L42.0143 27.66ZM11.1145 38.495L10.8345 37.535C10.3344 37.6808 10.03 38.1862 10.135 38.6965C10.2399 39.2067 10.719 39.551 11.2361 39.4876L11.1145 38.495ZM30.2248 21.8532L30.7363 22.7125C31.8002 22.0792 33.1066 21.4549 34.4364 21.0395C35.7788 20.6201 37.0675 20.4381 38.1306 20.6068C39.1498 20.7686 39.9518 21.2448 40.4753 22.2019C41.0281 23.2128 41.3363 24.8815 41.0212 27.5424L42.0143 27.66L43.0073 27.7776C43.3456 24.9202 43.066 22.7709 42.23 21.2422C41.3645 19.6597 39.9764 18.8747 38.4442 18.6315C36.9559 18.3953 35.3318 18.6644 33.8401 19.1305C32.3357 19.6004 30.8866 20.2956 29.7134 20.9939L30.2248 21.8532ZM42.0143 27.66L41.0212 27.5424C40.6215 30.9185 39.2126 32.9679 37.2461 34.2723C35.2234 35.614 32.5105 36.2341 29.406 36.5C26.3016 36.7659 22.972 36.6691 19.7176 36.6776C16.5189 36.6859 13.3703 36.7956 10.8345 37.535L11.1145 38.495L11.3944 39.455C13.6232 38.8051 16.5039 38.686 19.7228 38.6776C22.8862 38.6694 26.3626 38.768 29.5766 38.4927C32.7904 38.2175 35.908 37.5599 38.3516 35.939C40.8515 34.2808 42.545 31.6827 43.0073 27.7776L42.0143 27.66ZM11.1145 38.495L11.2361 39.4876C12.6724 39.3117 14.2493 39.095 15.6741 38.6613C17.0958 38.2285 18.4806 37.5466 19.4357 36.3602C20.4164 35.142 20.836 33.5287 20.5803 31.4706C20.3283 29.4419 19.4185 26.938 17.7044 23.8185L16.828 24.3L15.9516 24.7816C17.6075 27.7953 18.3878 30.0444 18.5956 31.7171C18.7997 33.3604 18.4486 34.397 17.8778 35.1061C17.2814 35.8469 16.3338 36.3698 15.0916 36.748C13.8524 37.1252 12.434 37.3259 10.9929 37.5025L11.1145 38.495ZM16.828 24.3L17.7044 23.8185C16.1733 21.0318 16.3911 18.6924 17.3936 16.9338C18.4253 15.1242 20.3578 13.8119 22.4295 13.3033C24.5084 12.7929 26.5349 13.1305 27.8493 14.3352C29.135 15.5134 29.9993 17.7652 29.2431 21.6627L30.2248 21.8532L31.2065 22.0436C32.0399 17.7485 31.1819 14.6765 29.2006 12.8607C27.2481 11.0713 24.4629 10.7447 21.9527 11.3609C19.4354 11.9789 17.0013 13.5839 15.6562 15.9433C14.282 18.3537 14.1128 21.4349 15.9516 24.7816L16.828 24.3Z" fill="var(--stroke-0, #8074FD)"/>
</g>
</svg>
