<svg preserveAspectRatio="none" width="100%" height="100%" overflow="visible" style="display: block;" viewBox="0 0 40 36" fill="none" xmlns="http://www.w3.org/2000/svg">
<g id="&#229;&#150;&#156;&#231;&#136;&#177; (1) 1">
<path id="Vector" d="M23.5312 5.32031C24.6312 4.71151 25.8272 4.42869 27.0791 4.51562L27.1045 4.51758C28.5208 4.63396 29.8349 4.98715 30.9619 5.66504C32.0063 6.29329 32.8718 7.11245 33.5205 8.12402C34.1432 9.09511 34.5549 10.1754 34.7715 11.3398C34.9755 12.4369 35.0416 13.5565 34.9746 14.6934C34.9077 15.8289 34.7121 16.9274 34.3818 17.9834C34.0677 18.9878 33.6738 19.938 33.1973 20.8301C32.736 21.6936 32.2208 22.5014 31.6514 23.249C31.1133 23.9553 30.5669 24.604 30.0117 25.1914L30.0029 25.2012C29.1815 26.059 28.3219 26.8615 27.4248 27.6074C26.5406 28.3426 25.6812 28.9869 24.8477 29.5352C24.0309 30.0724 23.2532 30.5212 22.5195 30.8662C21.869 31.1721 21.0872 31.4688 20.3105 31.4932L20.3115 31.4951C19.4208 31.5405 18.5611 31.2297 17.8516 30.8799C17.1395 30.5288 16.3954 30.0736 15.623 29.5312C14.844 28.9842 14.0378 28.3455 13.2061 27.6221C12.3855 26.9083 11.5765 26.1557 10.7793 25.3643L10.3691 24.9541C9.95301 24.5301 9.51912 24.0648 9.06836 23.5596C8.42152 22.8346 7.819 22.0451 7.25879 21.1943C6.67262 20.3041 6.17364 19.3476 5.76074 18.3291C5.30342 17.201 5.05564 16.0096 5.00879 14.7686C4.96322 13.5614 5.08756 12.3953 5.39941 11.2832C5.70731 10.1853 6.17781 9.17399 6.82031 8.26758C7.46686 7.3555 8.26536 6.58869 9.20312 5.97266C10.1588 5.34485 11.2218 4.91563 12.3701 4.67188C13.0628 4.52484 13.7652 4.50139 14.4658 4.60547C15.0701 4.69526 15.6604 4.84934 16.2344 5.06543C16.8051 5.28034 17.3506 5.55245 17.8682 5.87891C18.2042 6.09089 18.5304 6.3096 18.8457 6.53613L19.1572 6.76562L19.1709 6.77539C19.5643 7.07601 19.9468 7.39957 20.3203 7.74316C20.5621 7.49827 20.8087 7.26106 21.0605 7.03223L21.0801 7.01367L21.1016 6.99512C21.8307 6.36833 22.6433 5.81174 23.5312 5.32031Z" fill="var(--fill-0, #8074FD)" stroke="var(--stroke-0, white)" stroke-width="4"/>
</g>
</svg>
