<svg preserveAspectRatio="none" width="100%" height="100%" overflow="visible" style="display: block;" viewBox="0 0 50 50" fill="none" xmlns="http://www.w3.org/2000/svg">
<g id="bg-chat 1" clip-path="url(#clip0_0_38)">
<path id="Vector" d="M47.9131 14.2556C46.6335 11.4444 44.8065 8.91642 42.5389 6.81928C40.2574 4.67584 37.5936 2.98003 34.686 1.82007C28.4567 -0.606688 21.5433 -0.606688 15.314 1.82007C12.3769 2.97076 9.68403 4.66703 7.37777 6.81928C5.1422 8.92593 3.34425 11.453 2.08693 14.2556C0.74516 17.1192 0.0347708 20.2378 0.00392646 23.4C0.0380782 29.1545 2.27414 34.6776 6.25295 38.8351L7.37777 48.4377C7.42859 48.8668 7.63454 49.2624 7.95681 49.5502C8.27909 49.8379 8.69546 49.9979 9.12749 50C9.43403 50.0006 9.73549 49.9217 10.0024 49.7709L17.2512 45.6049C22.993 47.3539 29.1564 47.1191 34.7485 44.9383C37.6856 43.7876 40.3785 42.0913 42.6847 39.9391C44.8912 37.8451 46.6672 35.3403 47.9131 32.5652C49.2174 29.6895 49.8922 26.5682 49.8922 23.4104C49.8922 20.2527 49.2174 17.1314 47.9131 14.2556ZM14.1684 26.1288C13.6369 26.1288 13.1174 25.9712 12.6755 25.6759C12.2336 25.3806 11.8892 24.961 11.6858 24.47C11.4825 23.979 11.4292 23.4387 11.5329 22.9174C11.6366 22.3962 11.8925 21.9174 12.2683 21.5416C12.6441 21.1658 13.1229 20.9099 13.6441 20.8062C14.1654 20.7025 14.7057 20.7558 15.1967 20.9591C15.6877 21.1625 16.1073 21.5069 16.4026 21.9488C16.6979 22.3907 16.8554 22.9102 16.8554 23.4417C16.8558 24.1401 16.5841 24.8113 16.0981 25.3129C15.6121 25.8145 14.9498 26.1071 14.2517 26.1288H14.1684ZM24.9167 26.1288C24.3852 26.1288 23.8657 25.9712 23.4238 25.6759C22.9819 25.3806 22.6375 24.961 22.4341 24.47C22.2308 23.979 22.1776 23.4387 22.2812 22.9174C22.3849 22.3962 22.6408 21.9174 23.0166 21.5416C23.3924 21.1658 23.8712 20.9099 24.3925 20.8062C24.9137 20.7025 25.454 20.7558 25.945 20.9591C26.436 21.1625 26.8556 21.5069 27.1509 21.9488C27.4462 22.3907 27.6038 22.9102 27.6038 23.4417C27.6041 24.1401 27.3325 24.8113 26.8464 25.3129C26.3604 25.8145 25.6981 26.1071 25 26.1288H24.9167ZM35.665 26.1288C35.1335 26.1288 34.614 25.9712 34.1721 25.6759C33.7302 25.3806 33.3858 24.961 33.1825 24.47C32.9791 23.979 32.9259 23.4387 33.0295 22.9174C33.1332 22.3962 33.3891 21.9174 33.7649 21.5416C34.1407 21.1658 34.6195 20.9099 35.1408 20.8062C35.662 20.7025 36.2023 20.7558 36.6933 20.9591C37.1843 21.1625 37.604 21.5069 37.8992 21.9488C38.1945 22.3907 38.3521 22.9102 38.3521 23.4417C38.3523 24.1436 38.0778 24.8178 37.5873 25.32C37.0968 25.8221 36.4293 26.1124 35.7275 26.1288H35.665Z" fill="var(--fill-0, #8074FD)"/>
</g>
<defs>
<clipPath id="clip0_0_38">
<rect width="50" height="50" fill="white"/>
</clipPath>
</defs>
</svg>
