<svg preserveAspectRatio="none" width="100%" height="100%" overflow="visible" style="display: block;" viewBox="0 0 50 41" fill="none" xmlns="http://www.w3.org/2000/svg">
<g id="&#231;&#190;&#189;&#230;&#175;&#155;&#231;&#172;&#148; 2" clip-path="url(#clip0_0_4)">
<path id="Vector" d="M5.39461 29.4749C5.39461 29.4749 23.1183 7.19516 38.5312 4.63253C20.5498 11.8048 2.2769e-05 41 2.2769e-05 41L2.56851 39.9765C2.56851 39.9765 6.23428 35.9496 8.22072 34.0865C18.4966 33.5747 27.4863 32.5531 33.6518 23.8417C34.6784 21.7927 32.8828 22.0496 32.3676 22.0496C37.2488 20.0006 47.7804 12.3185 46.2386 8.47551C45.4695 7.70883 44.9543 8.21868 44.9543 8.21868C44.9543 8.21868 52.9174 3.09725 48.7994 0.791463C44.6813 -1.51433 34.4131 2.07182 34.4131 2.07182C34.4131 2.07182 35.1821 0.538459 32.8751 0.538459C27.277 1.2181 22.0058 3.53426 17.7257 7.19516C17.7257 7.19516 17.7257 5.14621 16.4414 5.9148C-1.28422 16.9262 5.39461 29.4749 5.39461 29.4749Z" fill="var(--fill-0, #8074FD)"/>
</g>
<defs>
<clipPath id="clip0_0_4">
<rect width="50" height="41" fill="white"/>
</clipPath>
</defs>
</svg>
