<svg preserveAspectRatio="none" width="100%" height="100%" overflow="visible" style="display: block;" viewBox="0 0 50 50" fill="none" xmlns="http://www.w3.org/2000/svg">
<g id="&#229;&#174;&#137;&#229;&#133;&#168;1 1">
<path id="Vector" d="M41.4286 6.25C41.4286 6.25 38.5714 6.25 33.9286 4.46429C28.9286 2.67857 25.8929 0.714286 25.8929 0.714286L24.4643 0L23.2143 0.714286C23.2143 0.714286 20 2.67857 15.1786 4.46429C10.3571 6.07143 7.67857 6.25 7.67857 6.25L5.35714 6.42857V31.0714C5.35714 40.1786 22.3214 50 24.4643 50C26.4286 50 43.5714 40.1786 43.5714 31.0714V6.42857L41.4286 6.25ZM23.2143 34.6429L14.2857 26.4286L16.9643 23.0357L22.6786 28.2143L33.3929 14.8214L36.6071 17.8571L23.2143 34.6429Z" fill="var(--fill-0, #8074FD)"/>
</g>
</svg>
