<svg preserveAspectRatio="none" width="100%" height="100%" overflow="visible" style="display: block;" viewBox="0 0 22 22.8787" fill="none" xmlns="http://www.w3.org/2000/svg">
<g id="&#229;&#174;&#137;&#229;&#133;&#168; (2) 1">
<path id="Vector" d="M18.8895 3.94113C15.6747 3.57744 13.2561 2.70775 11.701 1.35544L11.2919 1L10.8506 1.31488C8.41337 3.05494 6.003 3.937 3.6875 3.937H3V13.562C3 16.5128 5.6015 19.1892 10.9537 21.7446L11.2349 21.8787L11.5216 21.7556C16.816 19.4814 19.5 16.7252 19.5 13.562V4.01056L18.8895 3.94113ZM18.125 13.562C18.125 16.0714 15.8178 18.3608 11.2644 20.3683C6.69256 18.1387 4.375 15.8493 4.375 13.562V5.29C6.62381 5.14425 8.92075 4.28694 11.2177 2.73456C12.8663 3.99131 15.1852 4.82938 18.125 5.23156V13.562Z" fill="var(--fill-0, #8074FD)"/>
<path id="Vector_2" d="M7.73035 10.4713C7.67054 10.4009 7.59798 10.3435 7.51683 10.3023C7.43567 10.261 7.34751 10.2369 7.25736 10.2311C7.16722 10.2253 7.07687 10.238 6.99146 10.2686C6.90605 10.2991 6.82727 10.3469 6.7596 10.4091C6.69193 10.4713 6.63671 10.5467 6.59708 10.6311C6.55745 10.7155 6.5342 10.8072 6.52865 10.9009C6.52309 10.9947 6.53535 11.0886 6.56471 11.1775C6.59408 11.2663 6.63998 11.3482 6.69979 11.4186L9.31641 14.4979C9.58729 14.8161 9.96473 14.9798 10.3456 14.9798C10.5498 14.9796 10.7515 14.9324 10.9361 14.8415C11.1207 14.7507 11.2837 14.6184 11.4133 14.4543L15.6586 9.03133C15.7737 8.88428 15.828 8.69569 15.8094 8.50704C15.7909 8.31839 15.701 8.14513 15.5596 8.02539C15.4182 7.90564 15.2368 7.84922 15.0554 7.86853C14.874 7.88783 14.7074 7.98129 14.5923 8.12834L10.347 13.5506L7.73035 10.4713Z" fill="var(--fill-0, #8074FD)"/>
</g>
</svg>
