<svg preserveAspectRatio="none" width="100%" height="100%" overflow="visible" style="display: block;" viewBox="0 0 181.843 182" fill="none" xmlns="http://www.w3.org/2000/svg">
<g id="Frame 255" filter="url(#filter0_dd_0_34)">
<rect x="16" y="16" width="149.843" height="150" rx="20" fill="var(--fill-0, white)" shape-rendering="crispEdges"/>
<g id="Vector">
<path d="M79.3596 94.3034H35.8652C34.8323 94.3034 33.8095 94.5068 32.8553 94.9021C31.9011 95.2973 31.034 95.8767 30.3037 96.607C29.5733 97.3374 28.994 98.2044 28.5987 99.1587C28.2034 100.113 28 101.136 28 102.169V145.978C28 147.01 28.2034 148.033 28.5987 148.987C28.994 149.942 29.5733 150.809 30.3037 151.539C31.034 152.269 31.9011 152.849 32.8553 153.244C33.8095 153.639 34.8323 153.843 35.8652 153.843H79.3596C81.4455 153.843 83.4461 153.014 84.9211 151.539C86.3961 150.064 87.2247 148.063 87.2247 145.978V102.169C87.2247 100.083 86.3961 98.082 84.9211 96.607C83.4461 95.132 81.4455 94.3034 79.3596 94.3034ZM79.3596 145.978H35.8652V102.169H79.3596V145.978Z" fill="var(--fill-0, black)"/>
<path d="M45.8146 112.275H69.4101V135.871H45.8146V112.275ZM79.3596 28H35.8652C33.7792 28 31.7787 28.8286 30.3037 30.3037C28.8286 31.7787 28 33.7792 28 35.8652V78.573C28 80.659 28.8286 82.6595 30.3037 84.1345C31.7787 85.6096 33.7792 86.4382 35.8652 86.4382H79.3596C81.4455 86.4382 83.4461 85.6096 84.9211 84.1345C86.3961 82.6595 87.2247 80.659 87.2247 78.573V35.8652C87.2247 33.7792 86.3961 31.7787 84.9211 30.3037C83.4461 28.8286 81.4455 28 79.3596 28ZM79.3596 78.573H35.8652V35.8652H79.3596V78.573Z" fill="var(--fill-0, black)"/>
<path d="M45.8146 45.4213H69.4101V69.0169H45.8146V45.4213ZM149.91 94.1854H98.9832C98.3871 94.2049 97.8033 94.3597 97.2759 94.6381C96.7485 94.9166 96.2913 95.3113 95.9389 95.7924C95.5866 96.2736 95.3483 96.8286 95.2421 97.4155C95.1359 98.0023 95.1645 98.6056 95.3258 99.1798V149.91C95.3258 150.953 95.7402 151.953 96.4777 152.691C97.2152 153.428 98.2154 153.843 99.2584 153.843C100.301 153.843 101.302 153.428 102.039 152.691C102.777 151.953 103.191 150.953 103.191 149.91V102.051H149.91C150.953 102.051 151.953 101.636 152.691 100.899C153.428 100.161 153.843 99.161 153.843 98.118C153.843 97.075 153.428 96.0747 152.691 95.3372C151.953 94.5997 150.953 94.1854 149.91 94.1854ZM145.978 28H102.955C100.869 28 98.8686 28.8286 97.3935 30.3037C95.9185 31.7787 95.0899 33.7792 95.0899 35.8652V78.573C95.0899 80.659 95.9185 82.6595 97.3935 84.1345C98.8686 85.6096 100.869 86.4382 102.955 86.4382H145.978C147.01 86.4382 148.033 86.2348 148.987 85.8395C149.942 85.4442 150.809 84.8649 151.539 84.1345C152.269 83.4042 152.849 82.5372 153.244 81.5829C153.639 80.6287 153.843 79.6059 153.843 78.573V35.8652C153.843 34.8323 153.639 33.8095 153.244 32.8553C152.849 31.9011 152.269 31.034 151.539 30.3037C150.809 29.5733 149.942 28.994 148.987 28.5987C148.033 28.2034 147.01 28 145.978 28ZM145.978 78.573H102.955V35.8652H145.978V78.573Z" fill="var(--fill-0, black)"/>
<path d="M112.669 45.4214H136.264V69.0169H112.669V45.4214ZM143.539 110.27H153.685V120.416H143.539V110.27ZM116.444 110.27H106.298V120.416H116.444V140.472H126.59V120.376H116.444V110.27ZM106.298 143.815H116.444V153.961H106.298V143.815ZM128.635 115.303H138.781V125.449H128.635V115.303ZM120.534 103.624H130.68V113.77H120.534V103.624ZM128.281 143.185H138.427V153.331H128.281V143.185ZM143.539 136.303H153.685V154H143.539V136.303Z" fill="var(--fill-0, black)"/>
</g>
</g>
<defs>
<filter id="filter0_dd_0_34" x="0" y="0" width="181.843" height="182" filterUnits="userSpaceOnUse" color-interpolation-filters="sRGB">
<feFlood flood-opacity="0" result="BackgroundImageFix"/>
<feColorMatrix in="SourceAlpha" type="matrix" values="0 0 0 0 0 0 0 0 0 0 0 0 0 0 0 0 0 0 127 0" result="hardAlpha"/>
<feOffset dx="-6" dy="-6"/>
<feGaussianBlur stdDeviation="5"/>
<feComposite in2="hardAlpha" operator="out"/>
<feColorMatrix type="matrix" values="0 0 0 0 0.501961 0 0 0 0 0.454902 0 0 0 0 0.992157 0 0 0 0.06 0"/>
<feBlend mode="normal" in2="BackgroundImageFix" result="effect1_dropShadow_0_34"/>
<feColorMatrix in="SourceAlpha" type="matrix" values="0 0 0 0 0 0 0 0 0 0 0 0 0 0 0 0 0 0 127 0" result="hardAlpha"/>
<feOffset dx="6" dy="6"/>
<feGaussianBlur stdDeviation="5"/>
<feComposite in2="hardAlpha" operator="out"/>
<feColorMatrix type="matrix" values="0 0 0 0 0.501961 0 0 0 0 0.454902 0 0 0 0 0.992157 0 0 0 0.06 0"/>
<feBlend mode="normal" in2="effect1_dropShadow_0_34" result="effect2_dropShadow_0_34"/>
<feBlend mode="normal" in="SourceGraphic" in2="effect2_dropShadow_0_34" result="shape"/>
</filter>
</defs>
</svg>
