<svg preserveAspectRatio="none" width="100%" height="100%" overflow="visible" style="display: block;" viewBox="0 0 26 25.8611" fill="none" xmlns="http://www.w3.org/2000/svg">
<g id="&#229;&#190;&#174;&#228;&#191;&#161; 1">
<path id="Vector" d="M17.6211 9.00983C17.9004 9.00983 18.1797 9.03563 18.4575 9.06001C17.7101 5.59147 13.9607 3 9.68961 3C4.91353 3.01676 1 6.24474 1 10.3436C1 12.7067 2.30454 14.6556 4.47153 16.1646L3.59685 18.7531L6.63855 17.2457C7.72826 17.4589 8.60302 17.672 9.67887 17.672C9.95817 17.672 10.2238 17.6598 10.4892 17.6354C10.3167 17.0468 10.2273 16.4369 10.2237 15.8236C10.236 12.0657 13.4926 9.01136 17.6226 9.01136L17.6211 9.00983H17.6211ZM12.9463 6.6741C13.6062 6.6741 14.0359 7.10041 14.0359 7.75511C14.0359 8.39464 13.6062 8.83621 12.9463 8.83621C12.3001 8.83621 11.6417 8.40838 11.6417 7.75508C11.6417 7.10041 12.3001 6.6741 12.9463 6.6741ZM6.86414 8.83621C6.21963 8.83621 5.55972 8.40838 5.55972 7.75508C5.55972 7.10041 6.21963 6.6741 6.86414 6.6741C7.51033 6.6741 7.95386 7.10041 7.95386 7.75511C7.95386 8.39464 7.52415 8.83621 6.86414 8.83621ZM25.5556 15.7337C25.5556 12.2895 22.084 9.47423 18.1673 9.47423C14.0374 9.47423 10.7807 12.2895 10.7807 15.7337C10.7807 19.1901 14.0374 21.9947 18.1673 21.9947C19.0299 21.9947 19.9046 21.7815 20.778 21.5669L23.1598 22.8611L22.5014 20.7111C24.251 19.3926 25.5556 17.6689 25.5556 15.7337ZM15.7732 14.6526C15.3435 14.6526 14.8984 14.2263 14.8984 13.7847C14.8984 13.3584 15.3435 12.9169 15.7732 12.9169C16.4331 12.9169 16.8629 13.3447 16.8629 13.7847C16.8629 14.2263 16.4331 14.6526 15.7732 14.6526ZM20.5508 14.6526C20.1196 14.6526 19.6883 14.2263 19.6883 13.7847C19.6883 13.3584 20.118 12.9169 20.5508 12.9169C21.2092 12.9169 21.6404 13.3447 21.6404 13.7847C21.6404 14.2263 21.2092 14.6526 20.5508 14.6526Z" fill="var(--fill-0, #09BB07)"/>
</g>
</svg>
