<svg preserveAspectRatio="none" width="100%" height="100%" overflow="visible" style="display: block;" viewBox="0 0 18 18" fill="none" xmlns="http://www.w3.org/2000/svg">
<g id="&#230;&#155;&#180;&#230;&#150;&#176; (1) 2">
<path id="Vector" d="M14.7203 13.6538C13.2982 15.4275 11.2087 16.5 8.94225 16.5C5.3595 16.5 2.28225 13.824 1.5 10.113L2.98875 9.75C3.61425 12.7163 6.0765 14.8575 8.94225 14.8575C10.8067 14.8575 12.5205 13.95 13.6598 12.4605L12 10.5938H16.5V15.6563L14.7203 13.6538ZM3.27975 4.34625C4.70175 2.5725 6.79125 1.5 9.05775 1.5C12.6405 1.5 15.7178 4.176 16.5 7.887L15.0113 8.25C14.3858 5.28375 11.9235 3.1425 9.05775 3.1425C7.19325 3.1425 5.4795 4.05 4.34025 5.5395L6 7.40625H1.5V2.34375L3.27975 4.34625Z" fill="var(--fill-0, #5D669C)"/>
</g>
</svg>
