<svg preserveAspectRatio="none" width="100%" height="100%" overflow="visible" style="display: block;" viewBox="0 0 109 109" fill="none" xmlns="http://www.w3.org/2000/svg">
<g id="&#233;&#186;&#166;&#229;&#133;&#139;&#233;&#163;&#142; 1">
<path id="Vector" d="M54.4736 7.50439C45.2549 7.50439 37.7793 14.9273 37.7793 24.0829V53.2289C37.7793 62.3846 45.2549 69.8076 54.4736 69.8076C63.692 69.8076 71.1676 62.3846 71.1676 53.2289V24.0829C71.1676 14.9273 63.692 7.50439 54.4736 7.50439ZM25.9571 49.0821C24.0357 49.0821 22.4818 50.6252 22.4818 52.5364C22.4818 52.7779 22.5028 53.0086 22.5551 53.2289H22.4818C22.4818 69.3666 34.6082 82.6694 50.3051 84.7062V93.295H44.7407C42.4306 93.295 40.5619 95.1533 40.5619 97.4425C40.5619 99.731 42.4306 101.589 44.7407 101.589H64.2169C66.5268 101.589 68.3955 99.731 68.3955 97.4425C68.3955 95.1533 66.5268 93.295 64.2169 93.295H58.6524V84.7062C73.8868 82.7324 85.7303 70.123 86.4018 54.6154C86.4439 54.3948 86.4757 54.1637 86.4757 53.9222C86.4757 53.8381 86.4548 53.7648 86.4548 53.6915C86.4548 53.5337 86.4757 53.3871 86.4757 53.229H86.4018C86.0763 51.6542 84.6803 50.4679 82.9894 50.4679C81.3095 50.4679 79.9026 51.6542 79.5771 53.229H79.5039C79.5039 66.9625 68.2905 78.0917 54.4627 78.0917C40.6352 78.0917 29.4216 66.9624 29.4216 53.229H29.3483C29.3904 53.0087 29.4216 52.778 29.4216 52.5365C29.4324 50.6252 27.8787 49.0821 25.9571 49.0821Z" fill="var(--fill-0, white)"/>
</g>
</svg>
