<svg preserveAspectRatio="none" width="100%" height="100%" overflow="visible" style="display: block;" viewBox="0 0 22 22" fill="none" xmlns="http://www.w3.org/2000/svg">
<g id="&#229;&#174;&#137;&#229;&#133;&#168; (2) 1" clip-path="url(#clip0_0_14)">
<path id="Vector" d="M18.6094 18.2458C18.6094 18.9343 18.0625 19.4948 17.3912 19.4948H8.60938C8.28629 19.4943 7.97659 19.3625 7.74814 19.1284C7.51968 18.8943 7.39112 18.5769 7.39063 18.2458V4.98719H18.6094V18.2458ZM9.82813 2.7454C9.82813 2.60128 9.9375 2.48919 10.0781 2.48919H15.9375C16.0781 2.48919 16.1869 2.60128 16.1869 2.7454V3.498H9.82813V2.7454ZM22.2656 3.498H17.6406V2.7454C17.6406 1.78463 16.875 1 15.9375 1H10.0781C9.62673 1.00102 9.19411 1.18523 8.87493 1.51234C8.55574 1.83944 8.37599 2.2828 8.375 2.7454V3.498H3.73437C3.32812 3.498 3 3.83427 3 4.2506C3 4.66693 3.32812 5.0032 3.73437 5.0032H5.92188V18.2458C5.92188 18.9763 6.20502 19.6768 6.70903 20.1933C7.21303 20.7098 7.89661 21 8.60938 21H17.3906C18.1034 21 18.787 20.7098 19.291 20.1933C19.795 19.6768 20.0781 18.9763 20.0781 18.2458V4.98719H22.2656C22.6719 4.98719 23 4.65092 23 4.23459C23 3.81825 22.6719 3.498 22.2656 3.498ZM13 17.237C13.4062 17.237 13.7344 16.9007 13.7344 16.4844V8.47798C13.7344 8.06165 13.4069 7.72538 13 7.72538C12.5938 7.72538 12.2656 8.06165 12.2656 8.47798V16.4844C12.2656 16.9007 12.5938 17.237 13 17.237ZM9.57812 17.237C9.98437 17.237 10.3125 16.9007 10.3125 16.4844V8.47798C10.3125 8.06165 9.98437 7.72538 9.57812 7.72538C9.17187 7.72538 8.84375 8.06165 8.84375 8.47798V16.4844C8.85938 16.9007 9.1875 17.237 9.57812 17.237ZM16.4219 17.237C16.8281 17.237 17.1569 16.9007 17.1569 16.4844V8.47798C17.1569 8.06165 16.8288 7.72538 16.4219 7.72538C16.0163 7.72538 15.6875 8.06165 15.6875 8.47798V16.4844C15.6875 16.9007 16.0156 17.237 16.4219 17.237Z" fill="var(--fill-0, #8074FD)"/>
</g>
<defs>
<clipPath id="clip0_0_14">
<rect width="22" height="22" fill="white"/>
</clipPath>
</defs>
</svg>
