<svg preserveAspectRatio="none" width="100%" height="100%" overflow="visible" style="display: block;" viewBox="0 0 22 21.2736" fill="none" xmlns="http://www.w3.org/2000/svg">
<g id="&#229;&#174;&#137;&#229;&#133;&#168; (2) 1">
<g id="Vector">
<path d="M18.0348 20.2736H4.41367C3.64238 20.2736 3 19.7601 3 18.8599V8.96424C3 8.19295 3.64238 7.55057 4.41367 7.55057H18.0348C18.8061 7.55057 19.4484 8.19295 19.4484 8.96424V18.8578C19.5773 19.758 18.935 20.2736 18.0348 20.2736ZM4.41367 8.83748C4.28691 8.96424 4.28691 8.83748 4.41367 8.83748L4.28477 18.8599C4.28477 18.9889 4.28477 18.9889 4.41367 18.9889H18.0348C18.1637 18.9889 18.1637 18.9889 18.1637 18.8599V8.96424C18.1637 8.83534 18.1637 8.83534 18.0348 8.83534H4.41367V8.83748Z" fill="var(--fill-0, #8074FD)"/>
<path d="M12.8959 12.3072C12.8959 11.407 11.9957 10.6357 11.2245 10.6357C10.3243 10.6357 9.68188 11.5359 9.68188 12.3072C9.68188 12.9496 10.0664 13.592 10.7088 13.7209V16.0348C10.7088 16.2926 10.8377 16.4193 11.0934 16.4193H11.6069C11.8647 16.4193 11.9914 16.2904 11.9914 16.0348V13.7187C12.5092 13.592 12.8959 12.9496 12.8959 12.3072ZM16.6213 8.06621H15.3366V6.13906C15.3366 3.9541 13.5383 2.28477 11.4823 2.28477C9.29731 2.28477 7.62797 4.08301 7.62797 6.13906V8.06621H6.34321V6.13906C6.34321 3.31172 8.65707 1 11.4823 1C14.3075 1 16.6213 3.31387 16.6213 6.13906V8.06621Z" fill="var(--fill-0, #8074FD)"/>
</g>
</g>
</svg>
