<svg preserveAspectRatio="none" width="100%" height="100%" overflow="visible" style="display: block;" viewBox="0 0 14 14" fill="none" xmlns="http://www.w3.org/2000/svg">
<g id="&#230;&#179;&#168;&#230;&#132;&#143; (1) 1" clip-path="url(#clip0_0_37)">
<path id="Vector" d="M7 14C3.13413 14 0 10.8659 0 7C0 3.13367 3.13413 0 7 0C10.8659 0 14 3.13367 14 7C14 10.8659 10.8659 14 7 14ZM7 0.932867C3.64933 0.932867 0.933333 3.64933 0.933333 6.99953C0.933333 10.3502 3.64933 13.0662 7 13.0662C10.3507 13.0662 13.0667 10.3502 13.0667 6.99953C13.0667 3.64933 10.3507 0.932867 7 0.932867ZM7.23333 11.1995H6.76667C6.63787 11.1995 6.53333 11.095 6.53333 10.9662V10.0329C6.53333 9.90407 6.63787 9.79953 6.76667 9.79953H7.23333C7.36213 9.79953 7.46667 9.90407 7.46667 10.0329V10.9662C7.46667 11.095 7.36213 11.1995 7.23333 11.1995ZM7.23333 9.33287H6.76667C6.63787 9.33287 6.53333 9.22833 6.53333 9.09953V3.03333C6.53333 2.90407 6.63787 2.8 6.76667 2.8H7.23333C7.36213 2.8 7.46667 2.90407 7.46667 3.03333V9.09953C7.46667 9.22833 7.36213 9.33287 7.23333 9.33287Z" fill="var(--fill-0, #5D669C)"/>
</g>
<defs>
<clipPath id="clip0_0_37">
<rect width="14" height="14" fill="white"/>
</clipPath>
</defs>
</svg>
