<svg preserveAspectRatio="none" width="100%" height="100%" overflow="visible" style="display: block;" viewBox="0 0 24 24" fill="none" xmlns="http://www.w3.org/2000/svg">
<g id="qq 1" clip-path="url(#clip0_0_21)">
<path id="Vector" d="M3.45338 10.7834L3.40771 10.644L3.37064 10.4626L3.34593 10.3633V9.95466L3.39011 9.79371L3.43504 9.62357L3.49438 9.44499L3.5745 9.24637L3.67952 9.03969L3.82815 8.83283V8.68798L3.84256 8.55232L3.86559 8.36794L3.92923 8.1607L3.98783 7.93697L4.03463 7.83429L4.08872 7.73854L4.15817 7.63192L4.23399 7.55266V7.04112L4.27779 6.77748L4.32197 6.47149L4.40059 6.10516L4.5086 5.72385L4.5891 5.51436L4.66884 5.28632L4.75645 5.07364L4.86109 4.84579L4.96779 4.5962L5.09041 4.36254L5.22837 4.11314L5.40228 3.86393L5.48277 3.72115L5.56832 3.60422L5.75458 3.34077L5.94645 3.07788L6.16416 2.8073L6.39741 2.54404L6.6505 2.28471L6.91444 2.01807L7.23417 1.73025L7.4369 1.55524L7.68438 1.36636L7.93522 1.1996L8.20628 1.03939L8.46685 0.896981L8.76075 0.778933L9.07281 0.633715L9.38299 0.534029L9.69242 0.430596L10.0269 0.327913L10.3611 0.249776L10.7123 0.184756L11.0685 0.128168L11.4202 0.0822601L11.7714 0.0350407L12.1462 0.0151786H13.2529L13.6217 0.0607116L13.9925 0.103996L14.3704 0.142783L14.7212 0.225417L15.0917 0.302804L15.4393 0.391809L15.8203 0.49112L16.1688 0.612166L16.5024 0.750451L16.8588 0.896606L17.1838 1.05644L17.5 1.23445L17.8098 1.43007L18.0765 1.61202L18.2005 1.7147L18.3302 1.78984L18.5778 1.99596L18.7866 2.19533L18.9947 2.40144L19.1975 2.62892L19.3648 2.84965L19.564 3.07769L19.7025 3.32241L19.8433 3.54014L19.9927 3.79348L20.1164 4.01365L20.3248 4.48003L20.427 4.721L20.5071 4.94435L20.5872 5.18682L20.6591 5.41486L20.7091 5.61105L20.774 5.84171L20.8877 6.25357L20.9603 6.61408L21.0076 6.96279L21.0483 7.2433L21.1123 7.67052L21.1267 7.73835L21.178 7.81518L21.316 8.03628L21.4045 8.18619L21.4831 8.34209L21.5831 8.50923L21.6714 8.70972L21.7289 8.91453L21.7914 9.13938L21.8386 9.37023L21.8601 9.48359L21.88 9.62338V9.7448L21.8601 9.86528V10.0152L21.8242 10.1602L21.7587 10.4413L21.6832 10.5837L21.6273 10.7433V10.7833L21.6538 10.8327L21.7287 10.9495L22.0556 11.4235L22.3133 11.7795L22.4369 12.0169L22.6033 12.2772L22.7482 12.562L22.9154 12.8669L23.0827 13.2094L23.271 13.5971L23.3772 13.8347L23.4741 14.0669L23.5578 14.3118L23.6402 14.5319L23.7031 14.7634L23.7671 14.9807L23.848 15.4044L23.9122 15.8372L23.9562 16.2213V16.7631L23.9266 16.9551L23.8843 17.2864L23.8266 17.5843L23.7368 17.8542L23.7031 17.9643L23.6402 18.0968L23.5878 18.1892L23.5176 18.3029L23.4558 18.3747L23.3772 18.4673L23.307 18.5422L23.2319 18.6059L23.142 18.6447L23.0612 18.6835L22.9947 18.7049H22.8931L22.8283 18.6835L22.7048 18.6235L22.6482 18.5838L22.5889 18.542L22.5239 18.4851L22.4584 18.421L22.35 18.3029L22.222 18.1362L22.1211 17.9643L22.0204 17.8268L21.9219 17.6666L21.7832 17.3823L21.6273 17.0865L21.6089 17.0762H21.5831L21.5198 17.1224L21.4831 17.2002L21.4221 17.2969L21.316 17.5841L21.1557 17.993L20.9506 18.4851L20.7963 18.7302L20.6346 18.9861L20.4423 19.2739L20.2383 19.5556L20.134 19.683L20.0075 19.8222L19.7164 20.1027L19.7418 20.128L19.7811 20.1681L19.9266 20.2517L20.5322 20.5372L20.7961 20.6832L21.0483 20.8249L21.2976 21.0034L21.5198 21.1874L21.6273 21.2704L21.7081 21.3662L21.7914 21.4773L21.8601 21.5978L21.8972 21.6977L21.9425 21.8176L21.9622 21.9214L21.9837 22.0426L21.9622 22.1238V22.2062L21.9425 22.2913L21.8972 22.369L21.88 22.4299L21.8388 22.5038L21.7289 22.6507L21.6273 22.7682L21.5486 22.8562L21.4831 22.9214L21.316 23.041L21.1269 23.1452L20.9253 23.2448L20.7091 23.3406L20.4681 23.4333L20.3384 23.4721L20.2246 23.5034L19.9446 23.5675L19.6553 23.6284L19.3648 23.6889L19.0486 23.7395L18.7229 23.753L18.3888 23.7924H17.3519L16.9779 23.771L16.6297 23.7395L16.2544 23.6889L15.8819 23.6498L15.4897 23.5962L15.1097 23.5034L14.7388 23.4333L14.3704 23.3299L13.9925 23.1974L13.6218 23.0878L13.4264 23.0237L13.2529 22.9632L13.1432 22.9214L13.0342 22.8989H12.7259L12.3695 22.8744L12.1894 22.8564L11.9573 22.8311L11.8085 22.9632L11.6054 23.0878L11.33 23.2192L11.0253 23.3831L10.8399 23.4721L10.6466 23.5426L10.2196 23.7139L9.98744 23.771L9.74409 23.8353L9.40658 23.8997L9.19504 23.9158L8.97172 23.9346L8.73847 23.9599L8.46704 23.9698H7.35772L6.73136 23.9599L6.12298 23.8997L5.81523 23.8566L5.51778 23.8135L5.22837 23.771L4.93878 23.7139L4.66884 23.6284L4.40041 23.5675L4.15817 23.4719L3.92923 23.3831L3.71546 23.2833L3.53013 23.174L3.34593 23.041L3.28304 22.9767L3.20067 22.8989L3.13815 22.8311L3.08199 22.753L3.02995 22.6752L2.9897 22.5965L2.93148 22.4297L2.91108 22.3436L2.88524 22.248V22.1594L2.91108 22.0595V21.9602L2.93148 21.8609V21.6606L2.94122 21.5549L2.9897 21.4336L3.02995 21.3126L3.10295 21.1666L3.15649 21.1104L3.20067 21.0452L3.31579 20.9069L3.40752 20.8357L3.49438 20.7859L3.5745 20.7225L3.70104 20.6832L3.80269 20.6225L3.92923 20.5586L4.07337 20.5161L4.21845 20.4728L4.38637 20.4368L4.54548 20.4162L4.73417 20.3918L4.93878 20.3766L4.99194 20.3594H5.00374L5.02938 20.3379V20.3135L4.99194 20.2637L4.88337 20.2131L4.61194 19.9824L4.42942 19.8398L4.21845 19.6586L4.0058 19.4559L3.78472 19.1969L3.53013 18.905L3.43504 18.747L3.30924 18.584L3.20067 18.3953L3.10295 18.1892L2.97117 17.993L2.88524 17.7693L2.78285 17.5459L2.68064 17.2967L2.60632 17.0582L2.53556 16.7631L2.5146 16.7524H2.49307L2.48203 16.7312H2.45582L2.41276 16.7524L2.39142 16.7631L2.36185 16.8125L2.35118 16.8727L2.3289 16.9263L2.29034 17.0156L2.16604 17.2324L2.10146 17.3638L1.99925 17.4785L1.89067 17.6164L1.77068 17.7693L1.64395 17.9049L1.49513 18.0363L1.35773 18.1596L1.20535 18.2578L1.03875 18.3601L0.878696 18.421L0.690003 18.4673L0.504679 18.4851H0.461063L0.418382 18.4673L0.384687 18.3953L0.3304 18.3601L0.259266 18.1892L0.2149 18.0968L0.167166 17.9643L0.127855 17.8268L0.106701 17.6911L0.0481093 17.3823L0.0256458 17.2002V16.6034L0.0481093 16.1576L0.0847996 15.9302L0.127855 15.6956L0.167166 15.4432L0.237177 15.2082L0.315799 14.9378L0.39648 14.6742L0.504679 14.4028L0.606701 14.1443L0.747846 13.8819L0.878696 13.5971L1.03875 13.3301L1.22707 13.0419L1.41857 12.783L1.61868 12.4948L1.78547 12.2941L1.99925 12.0642L2.22426 11.8324L2.32909 11.7218L2.45601 11.5978L2.64039 11.4411L2.82983 11.2813L3.13815 11.0104L3.37064 10.8438L3.45338 10.7834Z" fill="var(--fill-0, #367AF9)"/>
</g>
<defs>
<clipPath id="clip0_0_21">
<rect width="24" height="24" fill="white"/>
</clipPath>
</defs>
</svg>
