<svg preserveAspectRatio="none" width="100%" height="100%" overflow="visible" style="display: block;" viewBox="0 0 18 16.6116" fill="none" xmlns="http://www.w3.org/2000/svg">
<g id="&#233;&#130;&#174;&#231;&#174;&#177; 1">
<path id="Vector" d="M14.1746 1H3.54313C1.5861 1 0 2.64731 0 4.67802V11.9491C0 13.9798 1.5861 15.6116 3.54313 15.6116H14.1746C16.1327 15.6116 17.7187 13.9798 17.7187 11.9491V4.67802C17.7187 2.64732 16.1327 1 14.1746 1ZM12.2847 8.35109L16.608 5.71291V10.9264L12.2847 8.35109ZM3.54313 2.12152H14.1746C15.4379 2.12152 16.483 3.15192 16.5974 4.44288L8.8594 9.16587L1.1164 4.43983C1.23269 3.15028 2.28188 2.12152 3.54313 2.12152ZM1.10552 5.70971L5.43404 8.35111L1.10552 10.9295V5.70971ZM14.1746 14.4858H3.54313C2.28324 14.4858 1.23494 13.4769 1.11675 12.1913L6.47595 8.99905C6.47922 8.99704 6.48236 8.99486 6.48556 8.99279L8.58521 10.2741C8.66898 10.3249 8.76363 10.3514 8.85938 10.3514C8.95509 10.3514 9.04972 10.3249 9.13351 10.2741L11.2332 8.99277C11.2364 8.99486 11.2396 8.99704 11.2428 8.99905L16.597 12.1883C16.4807 13.4753 15.4365 14.4858 14.1746 14.4858Z" fill="var(--fill-0, #5D669C)"/>
</g>
</svg>
